<?xml version="1.0" standalone="no"?><!DOCTYPE svg PUBLIC "-//W3C//DTD SVG 1.1//EN" "http://www.w3.org/Graphics/SVG/1.1/DTD/svg11.dtd"><svg t="1716450952460" class="icon" viewBox="0 0 1024 1024" version="1.1" xmlns="http://www.w3.org/2000/svg" p-id="4409" xmlns:xlink="http://www.w3.org/1999/xlink" width="200" height="200"><path d="M878.7968 124.2624H829.44a32.768 32.768 0 0 0 0 65.536h26.624v136.4992H167.936V189.7984H194.56a32.768 32.768 0 0 0 0-65.536h-49.3568A42.8544 42.8544 0 0 0 102.4 167.0656V900.608a42.8544 42.8544 0 0 0 42.8032 42.8544h733.5936a42.8544 42.8544 0 0 0 42.8032-42.8544V167.0656a42.8544 42.8544 0 0 0-42.8032-42.8032z m-22.7328 753.664H167.936V391.8336h688.128z" fill="#FFFFFF" p-id="4410"></path><path d="M430.08 189.7984h163.84a32.768 32.768 0 1 0 0-65.536H430.08a32.768 32.768 0 0 0 0 65.536zM312.6784 233.472a32.8192 32.8192 0 0 0 32.768-32.768V113.3056a32.768 32.768 0 1 0-65.536 0V200.704a32.768 32.768 0 0 0 32.768 32.768zM719.5136 233.472a32.768 32.768 0 0 0 32.768-32.768V113.3056a32.768 32.768 0 0 0-65.536 0V200.704a32.8192 32.8192 0 0 0 32.768 32.768z" fill="#FFFFFF" p-id="4411"></path></svg>