<svg t="1720025830602" class="icon" viewBox="0 0 1024 1024" version="1.1" xmlns="http://www.w3.org/2000/svg" p-id="2974" width="200" height="200"><path d="M731.363556 768H629.76a31.288889 31.288889 0 0 0-31.061333 31.459556 31.288889 31.288889 0 0 0 31.061333 31.459555h101.603556a31.288889 31.288889 0 0 0 31.061333-31.459555 31.288889 31.288889 0 0 0-31.061333-31.516445z m-555.52 62.919111v35.271111c0 21.333333 17.408 38.741333 38.684444 38.741334h566.897778c21.333333 0 38.684444-17.408 38.684444-38.684445V456.874667a31.118222 31.118222 0 1 1 62.122667 0v409.372444c0 55.523556-45.226667 100.807111-100.807111 100.807111H214.584889A100.977778 100.977778 0 0 1 113.777778 866.190222V157.809778C113.777778 102.115556 158.947556 56.888889 214.528 56.888889h433.777778a31.061333 31.061333 0 0 1 0 62.179555H214.528a38.798222 38.798222 0 0 0-38.684444 38.684445V768h321.080888a31.288889 31.288889 0 0 1 31.061334 31.516444 31.288889 31.288889 0 0 1-31.061334 31.459556H175.843556zM945.550222 129.137778v-0.056889c12.117333 12.458667 18.033778 29.696 16.156445 46.933333a70.940444 70.940444 0 0 1-20.821334 43.406222l-352.028444 352.142223L393.102222 642.844444l71.395556-195.697777 352.028444-352.085334c26.168889-26.225778 66.673778-28.273778 90.339556-4.608l38.627555 38.627556zM556.316444 520.419556l260.266667-260.551112-40.334222-41.073777-260.721778 260.835555-23.324444 64.113778 64.113777-23.324444z m342.812445-342.755556a13.084444 13.084444 0 0 0 3.868444-7.509333l-37.091555-37.034667a11.776 11.776 0 0 0-7.452445 3.811556l-40.334222 40.334222 40.334222 41.016889 40.675556-40.618667z" p-id="2975"></path></svg>
