<svg t="1731488925682" class="icon" viewBox="0 0 1024 1024" version="1.1" xmlns="http://www.w3.org/2000/svg" p-id="4254" width="200" height="200"><path d="M512 190.016c17.664 0 32-14.336 32-32L544 94.016c0-17.664-14.336-32-32-32s-32 14.336-32 32l0 64C480 175.68 494.336 190.016 512 190.016zM760.864 274.336l45.248-45.248c12.512-12.512 12.512-32.736 0-45.248-12.512-12.512-32.736-12.512-45.248 0l-45.248 45.248c-12.512 12.512-12.512 32.736 0 45.248S748.384 286.848 760.864 274.336zM128 510.016l64 0c17.664 0 32-14.336 32-32s-14.336-32-32-32L128 446.016c-17.664 0-32 14.336-32 32S110.336 510.016 128 510.016zM800 478.016c0 17.664 14.336 32 32 32l64 0c17.664 0 32-14.336 32-32s-14.336-32-32-32l-64 0C814.336 446.016 800 460.32 800 478.016zM263.072 274.336c12.512 12.512 32.768 12.512 45.248 0 12.512-12.512 12.512-32.736 0-45.248l-45.248-45.248c-12.512-12.512-32.736-12.512-45.248 0-12.512 12.512-12.512 32.736 0 45.248L263.072 274.336zM291.264 510.016l64 0c-2.112-10.336-3.264-21.056-3.264-32 0-88.384 71.616-160 160-160 88.384 0 160 71.616 160 160 0 10.944-1.12 21.664-3.264 32l64 0c1.6-10.528 3.264-21.056 3.264-32 0-123.488-100.512-224-224-224s-224 100.512-224 224C288 488.96 289.76 499.456 291.264 510.016zM896 574.016 128 574.016c-17.664 0-32 14.336-32 32s14.336 32 32 32l768 0c17.664 0 32-14.336 32-32S913.664 574.016 896 574.016zM896 702.016 128 702.016c-17.664 0-32 14.336-32 32s14.336 32 32 32l768 0c17.664 0 32-14.336 32-32S913.664 702.016 896 702.016zM896 830.016 128 830.016c-17.664 0-32 14.336-32 32s14.336 32 32 32l768 0c17.664 0 32-14.336 32-32S913.664 830.016 896 830.016z" fill="#000000" p-id="4255"></path></svg>
